<svg xmlns="http://www.w3.org/2000/svg" xmlns:xlink="http://www.w3.org/1999/xlink" width="600" zoomAndPan="magnify" viewBox="0 0 450 299.999988" height="400" preserveAspectRatio="xMidYMid meet" version="1.0"><defs><g/></defs><rect x="-45" width="540" fill="#ffffff" y="-29.999999" height="359.999986" fill-opacity="1"/><rect x="-45" width="540" fill="#eeeded" y="-29.999999" height="359.999986" fill-opacity="1"/><path stroke-linecap="round" transform="matrix(4.999999, 0, 0, 4.999999, 164.999996, 53.751464)" fill="none" stroke-linejoin="round" d="M 2.000001 15.99971 C 2.000001 15.99971 11.000002 0.999707 22.000004 11.999709 C 11.000002 22.999711 2.000001 7.999708 2.000001 7.999708 " stroke="#2af1f1" stroke-width="2" stroke-opacity="1" stroke-miterlimit="4"/><g fill="#000000" fill-opacity="1"><g transform="translate(53.063969, 185.749994)"><g><path d="M 20.046875 0.40625 C 16.222656 0.40625 12.925781 0.132812 10.15625 -0.40625 C 7.382812 -0.957031 5.257812 -1.957031 3.78125 -3.40625 C 2.300781 -4.863281 1.5625 -6.925781 1.5625 -9.59375 L 7.875 -9.59375 C 7.875 -8.476562 8.238281 -7.550781 8.96875 -6.8125 C 9.707031 -6.082031 10.988281 -5.546875 12.8125 -5.203125 C 14.644531 -4.859375 17.1875 -4.6875 20.4375 -4.6875 C 23.082031 -4.6875 25.171875 -4.804688 26.703125 -5.046875 C 28.234375 -5.285156 29.332031 -5.65625 30 -6.15625 C 30.664062 -6.664062 31 -7.332031 31 -8.15625 C 31 -8.820312 30.851562 -9.363281 30.5625 -9.78125 C 30.269531 -10.195312 29.707031 -10.523438 28.875 -10.765625 C 28.050781 -11.003906 26.882812 -11.195312 25.375 -11.34375 C 23.875 -11.488281 21.894531 -11.628906 19.4375 -11.765625 C 15.4375 -11.972656 12.195312 -12.359375 9.71875 -12.921875 C 7.238281 -13.484375 5.425781 -14.363281 4.28125 -15.5625 C 3.132812 -16.757812 2.5625 -18.398438 2.5625 -20.484375 C 2.5625 -22.535156 3.234375 -24.132812 4.578125 -25.28125 C 5.921875 -26.425781 7.832031 -27.234375 10.3125 -27.703125 C 12.800781 -28.171875 15.765625 -28.40625 19.203125 -28.40625 C 22.691406 -28.40625 25.703125 -28.085938 28.234375 -27.453125 C 30.773438 -26.828125 32.722656 -25.8125 34.078125 -24.40625 C 35.441406 -23.007812 36.125 -21.164062 36.125 -18.875 L 29.796875 -18.875 C 29.796875 -20.050781 29.410156 -20.957031 28.640625 -21.59375 C 27.867188 -22.238281 26.648438 -22.6875 24.984375 -22.9375 C 23.316406 -23.1875 21.125 -23.3125 18.40625 -23.3125 C 15.863281 -23.3125 13.898438 -23.210938 12.515625 -23.015625 C 11.128906 -22.816406 10.175781 -22.484375 9.65625 -22.015625 C 9.132812 -21.546875 8.875 -20.925781 8.875 -20.15625 C 8.875 -19.539062 9.019531 -19.035156 9.3125 -18.640625 C 9.613281 -18.242188 10.144531 -17.921875 10.90625 -17.671875 C 11.664062 -17.429688 12.738281 -17.234375 14.125 -17.078125 C 15.507812 -16.921875 17.28125 -16.773438 19.4375 -16.640625 C 22.207031 -16.484375 24.691406 -16.289062 26.890625 -16.0625 C 29.097656 -15.832031 30.972656 -15.453125 32.515625 -14.921875 C 34.066406 -14.390625 35.253906 -13.609375 36.078125 -12.578125 C 36.898438 -11.554688 37.3125 -10.164062 37.3125 -8.40625 C 37.3125 -6.53125 36.882812 -5.015625 36.03125 -3.859375 C 35.1875 -2.703125 33.988281 -1.816406 32.4375 -1.203125 C 30.894531 -0.585938 29.066406 -0.164062 26.953125 0.0625 C 24.847656 0.289062 22.546875 0.40625 20.046875 0.40625 Z M 20.046875 0.40625 "/></g></g></g><g fill="#000000" fill-opacity="1"><g transform="translate(91.940106, 185.749994)"><g><path d="M 1.953125 -26.203125 L 1.953125 -32 L 8.078125 -32 L 8.078125 -26.203125 Z M 1.953125 0 L 1.953125 -23.40625 L 8.078125 -23.40625 L 8.078125 0 Z M 1.953125 0 "/></g></g></g><g fill="#000000" fill-opacity="1"><g transform="translate(101.979103, 185.749994)"><g><path d="M 1.953125 0 L 1.953125 -23.40625 L 8.078125 -23.40625 L 8.078125 -19.046875 C 9.816406 -20.453125 11.894531 -21.59375 14.3125 -22.46875 C 16.738281 -23.351562 19.421875 -23.796875 22.359375 -23.796875 C 23.984375 -23.796875 25.535156 -23.625 27.015625 -23.28125 C 28.492188 -22.9375 29.804688 -22.347656 30.953125 -21.515625 C 32.109375 -20.691406 33.023438 -19.566406 33.703125 -18.140625 C 34.378906 -16.710938 34.734375 -14.921875 34.765625 -12.765625 L 34.6875 0 L 28.5625 0 L 28.5625 -10.515625 C 28.5625 -12.273438 28.332031 -13.753906 27.875 -14.953125 C 27.425781 -16.160156 26.640625 -17.066406 25.515625 -17.671875 C 24.398438 -18.285156 22.828125 -18.59375 20.796875 -18.59375 C 19.117188 -18.59375 17.4375 -18.332031 15.75 -17.8125 C 14.070312 -17.300781 12.550781 -16.632812 11.1875 -15.8125 C 9.832031 -15 8.796875 -14.140625 8.078125 -13.234375 L 8.078125 0 Z M 1.953125 0 "/></g></g></g><g fill="#000000" fill-opacity="1"><g transform="translate(138.695454, 185.749994)"><g/></g></g><g fill="#000000" fill-opacity="1"><g transform="translate(157.613578, 185.749994)"><g><path d="M 1.953125 0 L 1.953125 -28 L 23.953125 -28 C 26.085938 -28 27.953125 -27.59375 29.546875 -26.78125 C 31.148438 -25.96875 32.40625 -24.800781 33.3125 -23.28125 C 34.226562 -21.757812 34.6875 -19.957031 34.6875 -17.875 C 34.6875 -15.800781 34.226562 -14.003906 33.3125 -12.484375 C 32.40625 -10.960938 31.148438 -9.785156 29.546875 -8.953125 C 27.953125 -8.128906 26.085938 -7.71875 23.953125 -7.71875 L 8.28125 -7.71875 L 8.28125 0 Z M 8.28125 -13.046875 L 21.953125 -13.046875 C 22.566406 -13.046875 23.238281 -13.070312 23.96875 -13.125 C 24.707031 -13.175781 25.410156 -13.347656 26.078125 -13.640625 C 26.742188 -13.929688 27.289062 -14.410156 27.71875 -15.078125 C 28.144531 -15.742188 28.359375 -16.675781 28.359375 -17.875 C 28.359375 -19.082031 28.144531 -20.007812 27.71875 -20.65625 C 27.289062 -21.3125 26.742188 -21.785156 26.078125 -22.078125 C 25.410156 -22.367188 24.707031 -22.539062 23.96875 -22.59375 C 23.238281 -22.65625 22.566406 -22.6875 21.953125 -22.6875 L 8.28125 -22.6875 Z M 8.28125 -13.046875 "/></g></g></g><g fill="#000000" fill-opacity="1"><g transform="translate(193.849976, 185.749994)"><g><path d="M 1.953125 0 L 1.953125 -23.40625 L 8.078125 -23.40625 L 8.078125 -19.40625 C 9.992188 -20.976562 12.046875 -22.101562 14.234375 -22.78125 C 16.421875 -23.457031 18.632812 -23.796875 20.875 -23.796875 C 22.289062 -23.796875 23.503906 -23.710938 24.515625 -23.546875 C 25.535156 -23.390625 26.441406 -23.207031 27.234375 -23 L 27.234375 -17.921875 C 25.109375 -18.453125 23.082031 -18.71875 21.15625 -18.71875 C 19.15625 -18.71875 17.035156 -18.414062 14.796875 -17.8125 C 12.554688 -17.21875 10.316406 -16.082031 8.078125 -14.40625 L 8.078125 0 Z M 1.953125 0 "/></g></g></g><g fill="#000000" fill-opacity="1"><g transform="translate(222.647119, 185.749994)"><g><path d="M 17.484375 0.40625 C 15.296875 0.40625 13.234375 0.179688 11.296875 -0.265625 C 9.367188 -0.722656 7.675781 -1.4375 6.21875 -2.40625 C 4.769531 -3.382812 3.628906 -4.640625 2.796875 -6.171875 C 1.972656 -7.710938 1.5625 -9.5625 1.5625 -11.71875 C 1.5625 -14.570312 2.257812 -16.882812 3.65625 -18.65625 C 5.0625 -20.425781 6.988281 -21.722656 9.4375 -22.546875 C 11.894531 -23.378906 14.707031 -23.796875 17.875 -23.796875 C 20.0625 -23.796875 22.117188 -23.582031 24.046875 -23.15625 C 25.984375 -22.726562 27.691406 -22.007812 29.171875 -21 C 30.660156 -19.988281 31.828125 -18.59375 32.671875 -16.8125 C 33.523438 -15.039062 33.953125 -12.8125 33.953125 -10.125 L 7.796875 -10.125 C 8.203125 -8.039062 9.273438 -6.597656 11.015625 -5.796875 C 12.765625 -4.992188 14.921875 -4.59375 17.484375 -4.59375 C 20.015625 -4.59375 22.101562 -4.878906 23.75 -5.453125 C 25.40625 -6.023438 26.648438 -6.96875 27.484375 -8.28125 L 33.5625 -8.28125 C 32.757812 -5.34375 30.929688 -3.160156 28.078125 -1.734375 C 25.222656 -0.304688 21.691406 0.40625 17.484375 0.40625 Z M 8.046875 -14.3125 L 27.4375 -14.3125 C 26.875 -16.101562 25.742188 -17.335938 24.046875 -18.015625 C 22.359375 -18.703125 20.300781 -19.046875 17.875 -19.046875 C 15.207031 -19.046875 13.035156 -18.703125 11.359375 -18.015625 C 9.679688 -17.335938 8.578125 -16.101562 8.046875 -14.3125 Z M 8.046875 -14.3125 "/></g></g></g><g fill="#000000" fill-opacity="1"><g transform="translate(258.2036, 185.749994)"><g><path d="M 14.046875 0 L 1.5625 -23.40625 L 8.40625 -23.40625 L 18.40625 -4.5625 L 28.359375 -23.40625 L 35.203125 -23.40625 L 22.71875 0 Z M 14.046875 0 "/></g></g></g><g fill="#000000" fill-opacity="1"><g transform="translate(294.959937, 185.749994)"><g><path d="M 1.953125 -26.203125 L 1.953125 -32 L 8.078125 -32 L 8.078125 -26.203125 Z M 1.953125 0 L 1.953125 -23.40625 L 8.078125 -23.40625 L 8.078125 0 Z M 1.953125 0 "/></g></g></g><g fill="#000000" fill-opacity="1"><g transform="translate(304.998945, 185.749994)"><g><path d="M 17.484375 0.40625 C 15.296875 0.40625 13.234375 0.179688 11.296875 -0.265625 C 9.367188 -0.722656 7.675781 -1.4375 6.21875 -2.40625 C 4.769531 -3.382812 3.628906 -4.640625 2.796875 -6.171875 C 1.972656 -7.710938 1.5625 -9.5625 1.5625 -11.71875 C 1.5625 -14.570312 2.257812 -16.882812 3.65625 -18.65625 C 5.0625 -20.425781 6.988281 -21.722656 9.4375 -22.546875 C 11.894531 -23.378906 14.707031 -23.796875 17.875 -23.796875 C 20.0625 -23.796875 22.117188 -23.582031 24.046875 -23.15625 C 25.984375 -22.726562 27.691406 -22.007812 29.171875 -21 C 30.660156 -19.988281 31.828125 -18.59375 32.671875 -16.8125 C 33.523438 -15.039062 33.953125 -12.8125 33.953125 -10.125 L 7.796875 -10.125 C 8.203125 -8.039062 9.273438 -6.597656 11.015625 -5.796875 C 12.765625 -4.992188 14.921875 -4.59375 17.484375 -4.59375 C 20.015625 -4.59375 22.101562 -4.878906 23.75 -5.453125 C 25.40625 -6.023438 26.648438 -6.96875 27.484375 -8.28125 L 33.5625 -8.28125 C 32.757812 -5.34375 30.929688 -3.160156 28.078125 -1.734375 C 25.222656 -0.304688 21.691406 0.40625 17.484375 0.40625 Z M 8.046875 -14.3125 L 27.4375 -14.3125 C 26.875 -16.101562 25.742188 -17.335938 24.046875 -18.015625 C 22.359375 -18.703125 20.300781 -19.046875 17.875 -19.046875 C 15.207031 -19.046875 13.035156 -18.703125 11.359375 -18.015625 C 9.679688 -17.335938 8.578125 -16.101562 8.046875 -14.3125 Z M 8.046875 -14.3125 "/></g></g></g><g fill="#000000" fill-opacity="1"><g transform="translate(340.555415, 185.749994)"><g><path d="M 12.3125 0 L 1.5625 -23.40625 L 8.359375 -23.40625 L 16.6875 -4.796875 L 24.359375 -23.40625 L 32.046875 -23.40625 L 39.71875 -4.796875 L 48.046875 -23.40625 L 54.84375 -23.40625 L 44.078125 0 L 35.640625 0 L 28.203125 -17.234375 L 20.765625 0 Z M 12.3125 0 "/></g></g></g></svg>